HIERARCHY
ROOT joint_Root
{
	OFFSET 0.0 0.0 0.0
	CHANNELS 6 Xposition Yposition Zposition Zrotation Xrotation Yrotation 
	JOINT Hips
	{
		OFFSET -17.1583 93.1646 452.98
		CHANNELS 6 Xposition Yposition Zposition Zrotation Xrotation Yrotation 
		JOINT Spine
		{
			OFFSET 15.7357 0.0 0.0
			CHANNELS 6 Xposition Yposition Zposition Zrotation Xrotation Yrotation 
			JOINT Chest
			{
				OFFSET 8.98455 -0.406207 0.0
				CHANNELS 6 Xposition Yposition Zposition Zrotation Xrotation Yrotation 
				JOINT Neck
				{
					OFFSET 16.3773 0.0 0.0
					CHANNELS 6 Xposition Yposition Zposition Zrotation Xrotation Yrotation 
					JOINT Head
					{
						OFFSET 6.45672 0.0 0.0
						CHANNELS 6 Xposition Yposition Zposition Zrotation Xrotation Yrotation 
						End Site
						{
							OFFSET 0.0 0.0 0.0
						}
					}
				}
				JOINT Shoulder_L
				{
					OFFSET 12.9942 -0.242716 4.98039
					CHANNELS 6 Xposition Yposition Zposition Zrotation Xrotation Yrotation 
					JOINT UpperArm_L
					{
						OFFSET 5.34809 0.0 0.0
						CHANNELS 6 Xposition Yposition Zposition Zrotation Xrotation Yrotation 
						JOINT LowerArm_L
						{
							OFFSET 24.3286 1.87007e-05 0.0
							CHANNELS 6 Xposition Yposition Zposition Zrotation Xrotation Yrotation 
							JOINT Hand_L
							{
								OFFSET 22.2916 0.0 0.0
								CHANNELS 6 Xposition Yposition Zposition Zrotation Xrotation Yrotation 
								End Site
								{
									OFFSET 0.0 0.0 0.0
								}
							}
						}
					}
				}
				JOINT Shoulder_R
				{
					OFFSET 12.9945 -0.242716 -4.98039
					CHANNELS 6 Xposition Yposition Zposition Zrotation Xrotation Yrotation 
					JOINT UpperArm_R
					{
						OFFSET -5.34813 0.0 0.0
						CHANNELS 6 Xposition Yposition Zposition Zrotation Xrotation Yrotation 
						JOINT LowerArm_R
						{
							OFFSET -24.3289 0.000322201 0.0
							CHANNELS 6 Xposition Yposition Zposition Zrotation Xrotation Yrotation 
							JOINT Hand_R
							{
								OFFSET -22.2915 -0.000108084 0.0
								CHANNELS 6 Xposition Yposition Zposition Zrotation Xrotation Yrotation 
								End Site
								{
									OFFSET 0.0 0.0 0.0
								}
							}
						}
					}
				}
			}
		}
		JOINT UpperLeg_L
		{
			OFFSET -2.19248 -6.46944 0.0
			CHANNELS 6 Xposition Yposition Zposition Zrotation Xrotation Yrotation 
			JOINT LowerLeg_L
			{
				OFFSET 39.0811 0.0 -1.23785e-05
				CHANNELS 6 Xposition Yposition Zposition Zrotation Xrotation Yrotation 
				JOINT Foot_L
				{
					OFFSET 40.9854 0.0 -1.26872e-05
					CHANNELS 6 Xposition Yposition Zposition Zrotation Xrotation Yrotation 
					JOINT Toes_L
					{
						OFFSET 11.7543 0.0 0.0
						CHANNELS 6 Xposition Yposition Zposition Zrotation Xrotation Yrotation 
						End Site
						{
							OFFSET 0.0 0.0 0.0
						}
					}
				}
			}
		}
		JOINT UpperLeg_R
		{
			OFFSET -2.19251 6.46944 0.0
			CHANNELS 6 Xposition Yposition Zposition Zrotation Xrotation Yrotation 
			JOINT LowerLeg_R
			{
				OFFSET -39.0811 -0.00228153 -0.0401928
				CHANNELS 6 Xposition Yposition Zposition Zrotation Xrotation Yrotation 
				JOINT Foot_R
				{
					OFFSET -40.9854 0.0 0.0
					CHANNELS 6 Xposition Yposition Zposition Zrotation Xrotation Yrotation 
					JOINT Toes_R
					{
						OFFSET -11.7543 0.0 0.0
						CHANNELS 6 Xposition Yposition Zposition Zrotation Xrotation Yrotation 
						End Site
						{
							OFFSET 0.0 0.0 0.0
						}
					}
				}
			}
		}
	}
}
MOTION
Frames:	4
Frame Time:	0.0333333
0.000000 0.000000 0.000000 0.000000 0.000000 -0.000000 -1.977450 93.221500 -2.405100 87.617800 -0.145524 1.968500 15.735700 0.000005 -0.000001 99.399500 85.312000 -98.699900 8.984550 -0.406207 -0.000000 1.475960 1.492100 1.378920 16.377300 -0.000001 -0.000001 -8.154410 0.845655 -0.203771 6.456720 -0.000001 -0.000000 -4.446970 0.018365 4.547270 12.994200 -0.242716 4.980390 -92.311900 8.235650 -74.259900 5.348090 -0.000007 -0.000001 -67.618400 21.757200 -10.673700 24.328600 0.000019 0.000005 6.873920 33.007900 -12.487200 22.291600 -0.000001 0.000005 -11.305100 5.321680 -0.608197 12.994500 -0.242716 -4.980390 88.774300 5.511970 -77.442700 -5.348130 -0.000001 -0.000004 -66.952200 32.546100 -10.786900 -24.328900 0.000322 -0.000009 1.538040 7.838510 -11.163700 -22.291500 -0.000108 -0.000004 -15.383500 5.210690 2.437110 -2.192480 -6.469440 -0.000000 -172.455000 -6.947530 -1.806670 39.081100 -0.000007 -0.000012 0.001883 -0.006369 16.474800 40.985400 -0.000006 -0.000013 -1.471300 12.967100 -67.918200 11.754300 -0.000000 0.000003 -0.000988 0.182858 -9.159190 -2.192510 6.469440 -0.000001 178.727000 5.876530 179.714000 -39.081100 -0.002282 -0.040193 0.039905 -0.154516 13.316200 -40.985400 0.000008 0.000006 -3.389370 6.446550 -67.366400 -11.754300 -0.000006 -0.000006 -0.009400 0.266766 -5.736580
0.000000 0.000000 0.000000 0.000000 0.000000 -0.000000 -1.960090 93.305300 -2.478940 87.591500 -0.046037 0.925791 15.735700 0.000005 -0.000001 100.739000 85.631600 -100.042000 8.984550 -0.406207 -0.000000 0.808893 1.585080 1.382550 16.377300 -0.000001 -0.000001 -9.347140 0.701589 0.073427 6.456720 -0.000001 -0.000000 -6.605570 0.028070 3.952590 12.994200 -0.242716 4.980390 -92.173800 7.995320 -74.735500 5.348090 -0.000007 -0.000001 -64.578300 15.117000 -16.887100 24.328600 0.000019 0.000005 2.911280 39.933000 -4.539960 22.291600 -0.000001 0.000005 -13.822900 5.367620 -1.912480 12.994500 -0.242716 -4.980390 88.876200 5.097560 -77.549900 -5.348130 -0.000001 -0.000004 -62.994100 28.531000 -16.886900 -24.328900 0.000322 -0.000009 1.157410 11.767700 -5.676610 -22.291500 -0.000108 -0.000004 -23.941600 5.197550 2.831560 -2.192480 -6.469440 -0.000000 -172.607000 -6.679900 -2.613330 39.081100 -0.000007 -0.000012 0.003017 -0.010629 15.848500 40.985400 -0.000006 -0.000013 -1.579800 12.681700 -67.778300 11.754300 -0.000000 0.000003 -0.001266 0.186749 -9.001030 -2.192510 6.469440 -0.000001 178.704000 6.910060 179.028000 -39.081100 -0.002282 -0.040193 0.030575 -0.123297 12.458300 -40.985400 0.000008 0.000006 -3.884480 7.394600 -66.659200 -11.754300 -0.000006 -0.000006 -0.009644 0.268626 -5.660540
0.000000 0.000000 0.000000 0.000000 0.000000 -0.000000 -1.892080 93.347400 -2.339940 87.564200 -0.069267 0.373820 15.735700 0.000005 -0.000001 101.850000 86.027300 -101.082000 8.984550 -0.406207 -0.000000 0.000120 1.579130 1.536660 16.377300 -0.000001 -0.000001 -9.769500 0.780038 0.172732 6.456720 -0.000001 -0.000000 -8.115600 0.382787 3.114710 12.994200 -0.242716 4.980390 -91.961900 7.278980 -74.871000 5.348090 -0.000007 -0.000001 -61.791700 5.690930 -22.577200 24.328600 0.000019 0.000005 1.469630 48.604000 -1.957390 22.291600 -0.000001 0.000005 -13.017500 5.346670 -1.273530 12.994500 -0.242716 -4.980390 89.181200 3.637470 -77.303300 -5.348130 -0.000001 -0.000004 -60.494500 18.626200 -23.246700 -24.328900 0.000322 -0.000009 0.040859 15.166100 -0.167408 -22.291500 -0.000108 -0.000004 -27.003900 5.056800 6.077860 -2.192480 -6.469440 -0.000000 -172.705000 -6.616750 -2.873390 39.081100 -0.000007 -0.000012 0.002500 -0.009048 15.445700 40.985400 -0.000006 -0.000013 -1.590500 12.457500 -67.764000 11.754300 -0.000000 0.000003 -0.001703 0.192558 -8.764890 -2.192510 6.469440 -0.000001 178.656000 7.386880 178.905000 -39.081100 -0.002282 -0.040193 0.023290 -0.095958 11.747200 -40.985400 0.000008 0.000006 -4.291630 7.881030 -66.162600 -11.754300 -0.000006 -0.000006 -0.009359 0.266453 -5.749400
0.000000 0.000000 0.000000 0.000000 0.000000 -0.000000 -1.805020 93.334800 -1.921160 87.609500 -0.334326 0.761251 15.735700 0.000005 -0.000001 103.358000 86.267100 -102.577000 8.984550 -0.406207 -0.000000 -0.512970 1.668090 1.568630 16.377300 -0.000001 -0.000001 -9.431780 0.895485 0.346772 6.456720 -0.000001 -0.000000 -9.062820 0.849949 2.418000 12.994200 -0.242716 4.980390 -91.692800 6.149650 -74.576000 5.348090 -0.000007 -0.000001 -57.672200 -1.834820 -28.685000 24.328600 0.000019 0.000005 2.925200 48.091700 -3.929230 22.291600 -0.000001 0.000005 -10.430400 5.368970 -1.958760 12.994500 -0.242716 -4.980390 89.498500 2.185080 -77.071500 -5.348130 -0.000001 -0.000004 -57.550900 8.125600 -29.358600 -24.328900 0.000322 -0.000009 -0.001055 17.179800 0.000076 -22.291500 -0.000108 -0.000004 -23.261000 5.032590 6.651410 -2.192480 -6.469440 -0.000000 -172.711000 -7.071280 -1.988790 39.081100 -0.000007 -0.000012 0.003812 -0.014100 15.130700 40.985400 -0.000006 -0.000013 -1.492660 12.639800 -67.693100 11.754300 -0.000000 0.000003 -0.002147 0.198167 -8.536780 -2.192510 6.469440 -0.000001 178.443000 6.650120 179.639000 -39.081100 -0.002282 -0.040193 0.018527 -0.074307 11.554300 -40.985400 0.000008 0.000006 -4.902480 7.531580 -66.093300 -11.754300 -0.000006 -0.000006 -0.009808 0.269868 -5.609780
